<svg width="32" height="32" viewBox="0 0 32 32" fill="none" xmlns="http://www.w3.org/2000/svg">
<g id="mdi:virus-outline">
<path id="Vector" d="M15.9999 0.666632C15.5036 0.665514 15.02 0.82303 14.6195 1.11619C14.219 1.40936 13.9228 1.82283 13.7739 2.29627C13.625 2.7697 13.6313 3.27833 13.7919 3.74793C13.9525 4.21752 14.259 4.6235 14.6666 4.90663V6.7733C13.4666 6.94663 12.3466 7.3333 11.3332 7.91997L9.85324 5.79997C10.1066 5.10663 10.0399 4.30663 9.58658 3.66663C9.11991 3.0133 8.39991 2.66663 7.66658 2.66663C7.19991 2.66663 6.73324 2.79997 6.33324 3.0933C5.27991 3.82663 5.01324 5.27996 5.75991 6.3333C6.21324 6.98663 6.93324 7.3333 7.66658 7.3333L9.23991 9.5733C8.66657 10.1466 8.21324 10.7866 7.82658 11.4933C7.55991 11.3866 7.27991 11.3333 6.99991 11.3333C6.39991 11.3333 5.79991 11.56 5.33324 12C4.43991 12.9333 4.43991 14.4 5.33324 15.3333C5.71991 15.6933 6.18658 15.8933 6.66658 16C6.66658 16.72 6.75991 17.4133 6.90658 18.08L5.15991 18.5466C4.74658 18.2 4.21324 18 3.66658 18C3.46658 18 3.25324 18 3.05324 18.08C2.75719 18.1603 2.47988 18.2982 2.23718 18.4858C1.99448 18.6734 1.79115 18.907 1.63882 19.1732C1.4865 19.4395 1.38817 19.7332 1.34946 20.0375C1.31075 20.3418 1.33243 20.6507 1.41324 20.9466C1.69324 22 2.66658 22.6666 3.66658 22.6666C3.86658 22.6666 4.06658 22.6666 4.27991 22.5866C5.03991 22.3733 5.61324 21.8133 5.85324 21.12L7.86658 20.5733C8.46658 21.6266 9.26658 22.56 10.1999 23.3333L8.73324 26C7.99991 26.1066 7.33324 26.52 6.94658 27.2266C6.80125 27.4963 6.71045 27.7919 6.67937 28.0966C6.6483 28.4014 6.67755 28.7093 6.76545 29.0027C6.85336 29.2961 6.9982 29.5694 7.19171 29.8068C7.38521 30.0443 7.62359 30.2413 7.89324 30.3866C8.16289 30.532 8.45852 30.6228 8.76326 30.6538C9.068 30.6849 9.37587 30.6557 9.6693 30.5678C9.96274 30.4798 10.236 30.335 10.4734 30.1415C10.7109 29.948 10.9079 29.7096 11.0532 29.44C11.4266 28.7466 11.4132 27.9466 11.0799 27.2933L12.5066 24.6666C13.5866 25.0933 14.7599 25.3333 15.9999 25.3333H16.2399C16.0666 25.68 15.9999 26.08 15.9999 26.5066C16.1066 27.7333 17.1199 28.6666 18.3332 28.6666H18.5066C19.7999 28.56 20.7599 27.44 20.6666 26.16C20.6132 25.4933 20.2799 24.9066 19.7999 24.52C20.4266 24.24 21.0266 23.88 21.5866 23.4666L24.7066 26.5866C24.5732 27.3333 24.7866 28.0933 25.3332 28.6666C25.7999 29.1066 26.3999 29.3333 26.9999 29.3333C27.5999 29.3333 28.1999 29.1066 28.6666 28.6666C29.5599 27.7333 29.5599 26.2666 28.6666 25.3333C28.1999 24.8933 27.5999 24.6666 26.9999 24.6666C26.8666 24.6666 26.7332 24.6666 26.5866 24.7066L23.4666 21.5866C24.1199 20.72 24.6266 19.7333 24.9466 18.6666H26.4266C26.7097 19.0742 27.1157 19.3807 27.5853 19.5413C28.0549 19.7019 28.5635 19.7082 29.0369 19.5593C29.5104 19.4104 29.9238 19.1142 30.217 18.7137C30.5102 18.3133 30.6677 17.8296 30.6666 17.3333C30.6677 16.837 30.5102 16.3533 30.217 15.9529C29.9238 15.5524 29.5104 15.2562 29.0369 15.1073C28.5635 14.9584 28.0549 14.9647 27.5853 15.1253C27.1157 15.2859 26.7097 15.5924 26.4266 16H25.3332C25.3332 13.9066 24.6666 12 23.4666 10.4133L25.2532 8.62663C25.3999 8.66663 25.5332 8.66663 25.6666 8.66663C26.2666 8.66663 26.8666 8.43997 27.3332 7.99997C28.2266 7.07997 28.2266 5.59997 27.3332 4.66663C26.8666 4.22663 26.2666 3.99997 25.6666 3.99997C25.0666 3.99997 24.4666 4.22663 23.9999 4.66663C23.4532 5.23997 23.2399 5.99997 23.3732 6.74663L21.5866 8.5333C20.3599 7.6133 18.9199 6.99997 17.3332 6.7733V4.90663C17.7409 4.6235 18.0473 4.21752 18.2079 3.74793C18.3685 3.27833 18.3748 2.7697 18.2259 2.29627C18.0771 1.82283 17.7808 1.40936 17.3803 1.11619C16.9799 0.82303 16.4962 0.665514 15.9999 0.666632ZM15.9999 22.6666C12.3199 22.6666 9.33324 19.68 9.33324 16C9.33324 12.32 12.3199 9.3333 15.9999 9.3333C19.6799 9.3333 22.6666 12.32 22.6666 16C22.6666 19.68 19.6799 22.6666 15.9999 22.6666ZM13.9999 12C12.8932 12 11.9999 12.8933 11.9999 14C11.9999 15.1066 12.8932 16 13.9999 16C15.1066 16 15.9999 15.1066 15.9999 14C15.9999 12.8933 15.1066 12 13.9999 12ZM18.6666 17.3333C17.9332 17.3333 17.3332 17.9333 17.3332 18.6666C17.3332 19.4 17.9332 20 18.6666 20C19.3999 20 19.9999 19.4 19.9999 18.6666C19.9999 17.9333 19.3999 17.3333 18.6666 17.3333Z" fill="white"/>
</g>
</svg>
