<svg width="32" height="32" viewBox="0 0 32 32" fill="none" xmlns="http://www.w3.org/2000/svg">
<g id="icon-park-outline:speed">
<g id="Group">
<path id="Vector" d="M22.6821 4.45998C20.6526 3.28173 18.3468 2.66291 16.0001 2.66664C8.63608 2.66664 2.66675 8.63598 2.66675 16C2.66675 23.364 8.63608 29.3333 16.0001 29.3333C23.3641 29.3333 29.3334 23.364 29.3334 16C29.3334 13.582 28.6894 11.3133 27.5641 9.35864" stroke="white" stroke-width="3" stroke-linecap="round" stroke-linejoin="round"/>
<path id="Vector_2" d="M21.3002 10.7C21.3002 10.7 19.0415 16.73 18.0002 17.7713C17.5 18.2714 16.8218 18.5524 16.1145 18.5524C15.4072 18.5524 14.7289 18.2714 14.2288 17.7713C13.7287 17.2712 13.4478 16.5929 13.4478 15.8856C13.4478 15.1784 13.7287 14.5001 14.2288 14C15.2702 12.9586 21.3002 10.7 21.3002 10.7Z" stroke="white" stroke-width="3" stroke-linejoin="round"/>
</g>
</g>
</svg>
