<svg width="32" height="32" viewBox="0 0 32 32" fill="none" xmlns="http://www.w3.org/2000/svg">
<g id="hugeicons:shopping-basket-done-01">
<path id="Vector" d="M14.6667 29.3333H12.8294C9.69869 29.3333 8.13335 29.3333 7.04802 28.392C5.96135 27.452 5.69602 25.8653 5.16402 22.692L3.55869 13.12C3.31602 11.6733 3.19469 10.9507 3.58402 10.476C3.97202 10.0013 4.68669 10.0013 6.11469 10.0013H25.8854C27.3134 10.0013 28.028 10.0013 28.416 10.476C28.8054 10.9507 28.6827 11.6733 28.4414 13.1213L27.7334 17.3333M18 26.6667C18 26.6667 19.3334 26.6667 20.6667 29.3333C20.6667 29.3333 24.9027 22.6667 28.6667 21.3333M23.3334 10C23.3334 8.05508 22.5607 6.18982 21.1855 4.81455C19.8102 3.43928 17.9449 2.66667 16 2.66667C14.0551 2.66667 12.1898 3.43928 10.8146 4.81455C9.4393 6.18982 8.66669 8.05508 8.66669 10" stroke="#F5D4B1" stroke-width="1.5" stroke-linecap="round" stroke-linejoin="round"/>
</g>
</svg>
