<svg width="24" height="24" viewBox="0 0 24 24" fill="none" xmlns="http://www.w3.org/2000/svg">
<g id="hugeicons:shopping-basket-done-01">
<path id="Vector" d="M11 22H9.62202C7.27402 22 6.10002 22 5.28602 21.294C4.47102 20.589 4.27202 19.399 3.87302 17.019L2.66902 9.84C2.48702 8.755 2.39602 8.213 2.68802 7.857C2.97902 7.501 3.51502 7.501 4.58602 7.501H19.414C20.485 7.501 21.021 7.501 21.312 7.857C21.604 8.213 21.512 8.755 21.331 9.841L20.8 13M13.5 20C13.5 20 14.5 20 15.5 22C15.5 22 18.677 17 21.5 16M17.5 7.5C17.5 6.04131 16.9206 4.64236 15.8891 3.61091C14.8577 2.57946 13.4587 2 12 2C10.5413 2 9.14238 2.57946 8.11093 3.61091C7.07948 4.64236 6.50002 6.04131 6.50002 7.5" stroke="#024035" stroke-width="1.5" stroke-linecap="round" stroke-linejoin="round"/>
</g>
</svg>
