<svg width="40" height="40" viewBox="0 0 40 40" fill="none" xmlns="http://www.w3.org/2000/svg">
<g id="Group 5">
<circle id="Ellipse 2" cx="20" cy="20" r="20" fill="#0A2E27"/>
<g id="Instagram">
<path id="Vector" d="M24.6991 27.2939H15.3009C14.0022 27.2939 12.9412 26.2329 12.9412 24.9342V15.536C12.9412 14.2373 14.0022 13.1763 15.3009 13.1763H24.6991C25.9978 13.1763 27.0588 14.2373 27.0588 15.536V24.9342C27.0588 26.2387 26.0036 27.2939 24.6991 27.2939Z" fill="white"/>
<path id="Vector_2" d="M20.003 23.8615C19.0348 23.8615 18.1245 23.4847 17.4404 22.8005C16.7563 22.1164 16.3794 21.2061 16.3794 20.2379C16.3794 19.2697 16.7563 18.3594 17.4404 17.6753C18.1245 16.9911 19.0348 16.6143 20.003 16.6143C20.9713 16.6143 21.8815 16.9911 22.5656 17.6753C23.2498 18.3594 23.6266 19.2697 23.6266 20.2379C23.6266 21.2061 23.2498 22.1164 22.5656 22.8005C21.8757 23.4847 20.9713 23.8615 20.003 23.8615ZM20.003 17.3854C18.4318 17.3854 17.1505 18.6609 17.1505 20.2379C17.1505 21.8091 18.426 23.0904 20.003 23.0904C21.5742 23.0904 22.8555 21.8149 22.8555 20.2379C22.8497 18.6667 21.5742 17.3854 20.003 17.3854Z" fill="#0A2E27"/>
<path id="Vector_3" d="M24.3328 16.496C24.7171 16.496 25.0286 16.1845 25.0286 15.8002C25.0286 15.416 24.7171 15.1045 24.3328 15.1045C23.9486 15.1045 23.6371 15.416 23.6371 15.8002C23.6371 16.1845 23.9486 16.496 24.3328 16.496Z" fill="#0A2E27"/>
</g>
</g>
</svg>
