<svg width="25" height="24" viewBox="0 0 25 24" fill="none" xmlns="http://www.w3.org/2000/svg">
<g id="material-symbols:star-rounded">
<path id="Vector" d="M12.5001 17.275L8.35008 19.775C8.16675 19.8917 7.97508 19.9417 7.77508 19.925C7.57508 19.9083 7.40008 19.8417 7.25008 19.725C7.10008 19.6083 6.98342 19.4627 6.90008 19.288C6.81675 19.1133 6.80008 18.9173 6.85008 18.7L7.95008 13.975L4.27508 10.8C4.10842 10.65 4.00442 10.479 3.96308 10.287C3.92175 10.095 3.93408 9.90768 4.00008 9.72501C4.06608 9.54235 4.16608 9.39235 4.30008 9.27501C4.43408 9.15768 4.61742 9.08268 4.85008 9.05001L9.70008 8.62501L11.5751 4.17501C11.6584 3.97501 11.7878 3.82501 11.9631 3.72501C12.1384 3.62501 12.3174 3.57501 12.5001 3.57501C12.6828 3.57501 12.8618 3.62501 13.0371 3.72501C13.2124 3.82501 13.3418 3.97501 13.4251 4.17501L15.3001 8.62501L20.1501 9.05001C20.3834 9.08335 20.5668 9.15835 20.7001 9.27501C20.8334 9.39168 20.9334 9.54168 21.0001 9.72501C21.0668 9.90835 21.0794 10.096 21.0381 10.288C20.9967 10.48 20.8924 10.6507 20.7251 10.8L17.0501 13.975L18.1501 18.7C18.2001 18.9167 18.1834 19.1127 18.1001 19.288C18.0168 19.4633 17.9001 19.609 17.7501 19.725C17.6001 19.841 17.4251 19.9077 17.2251 19.925C17.0251 19.9423 16.8334 19.8923 16.6501 19.775L12.5001 17.275Z" fill="#0FB597"/>
</g>
</svg>
