<svg width="40" height="40" viewBox="0 0 40 40" fill="none" xmlns="http://www.w3.org/2000/svg">
<g id="Group 7">
<circle id="Ellipse 7" cx="20" cy="20" r="20" fill="#0A2E27"/>
<path id="TikTok" d="M23.4328 12.6266L23.0354 12H20.6306V17.6431L20.6224 23.1551C20.6265 23.1961 20.6306 23.2411 20.6306 23.2821C20.6306 24.6621 19.5081 25.7883 18.1235 25.7883C16.7388 25.7883 15.6163 24.6662 15.6163 23.2821C15.6163 21.902 16.7388 20.7759 18.1235 20.7759C18.4102 20.7759 18.6888 20.8291 18.9469 20.9192V18.1673C18.6806 18.1222 18.4061 18.0976 18.1235 18.0976C15.2681 18.1017 12.9412 20.4278 12.9412 23.2862C12.9412 26.1446 15.2681 28.4706 18.1276 28.4706C20.987 28.4706 23.314 26.1446 23.314 23.2862V16.7299C24.3504 17.7659 25.69 18.7774 27.173 19.1009V16.2876C25.563 15.575 23.9612 13.4701 23.4328 12.6266Z" fill="white"/>
</g>
</svg>
