<svg width="32" height="32" fill="none" xmlns="http://www.w3.org/2000/svg"><path d="M16 .667a2.328 2.328 0 00-1.333 4.24v1.866a9.27 9.27 0 00-3.334 1.147L9.853 5.8a2.31 2.31 0 00-.266-2.133 2.354 2.354 0 00-1.92-1c-.467 0-.934.133-1.334.426a2.317 2.317 0 00-.573 3.24 2.31 2.31 0 001.907 1l1.573 2.24a8.301 8.301 0 00-1.413 1.92 2.223 2.223 0 00-.827-.16c-.6 0-1.2.227-1.667.667a2.408 2.408 0 000 3.333c.387.36.854.56 1.334.667 0 .72.093 1.413.24 2.08l-1.747.467A2.34 2.34 0 003.667 18c-.2 0-.414 0-.614.08a2.333 2.333 0 00-1.64 2.867c.28 1.053 1.254 1.72 2.254 1.72.2 0 .4 0 .613-.08a2.317 2.317 0 001.573-1.467l2.014-.547c.6 1.054 1.4 1.987 2.333 2.76L8.733 26c-.733.107-1.4.52-1.786 1.227a2.333 2.333 0 004.106 2.213c.374-.693.36-1.493.027-2.147l1.427-2.626a9.469 9.469 0 003.493.666h.24c-.173.347-.24.747-.24 1.174a2.35 2.35 0 002.333 2.16h.174a2.35 2.35 0 002.16-2.507 2.352 2.352 0 00-.867-1.64 9.665 9.665 0 001.787-1.053l3.12 3.12c-.134.746.08 1.506.626 2.08a2.43 2.43 0 001.667.666c.6 0 1.2-.226 1.667-.666a2.41 2.41 0 000-3.334A2.43 2.43 0 0027 24.667c-.133 0-.267 0-.413.04l-3.12-3.12a9.285 9.285 0 001.48-2.92h1.48a2.328 2.328 0 004.24-1.334A2.328 2.328 0 0026.427 16h-1.094c0-2.093-.666-4-1.866-5.587l1.786-1.786c.147.04.28.04.414.04.6 0 1.2-.227 1.666-.667.894-.92.894-2.4 0-3.333A2.43 2.43 0 0025.667 4c-.6 0-1.2.227-1.667.667a2.375 2.375 0 00-.627 2.08l-1.786 1.786a9.22 9.22 0 00-4.254-1.76V4.907A2.328 2.328 0 0016 .667zm0 22A6.669 6.669 0 019.333 16 6.67 6.67 0 0116 9.333 6.67 6.67 0 0122.667 16 6.67 6.67 0 0116 22.667zM14 12c-1.107 0-2 .893-2 2s.893 2 2 2 2-.893 2-2-.893-2-2-2zm4.667 5.333c-.734 0-1.334.6-1.334 1.334 0 .733.6 1.333 1.334 1.333C19.4 20 20 19.4 20 18.667c0-.734-.6-1.334-1.333-1.334z" fill="#fff"/></svg>