<svg width="40" height="40" fill="none" xmlns="http://www.w3.org/2000/svg"><circle cx="20" cy="20" r="20" fill="#0A2E27"/><path d="M24.7 27.294h-9.4a2.366 2.366 0 01-2.359-2.36v-9.398a2.366 2.366 0 012.36-2.36h9.398a2.366 2.366 0 012.36 2.36v9.398a2.358 2.358 0 01-2.36 2.36z" fill="#fff"/><path d="M20.003 23.861a3.6 3.6 0 01-2.563-1.06 3.6 3.6 0 01-1.06-2.563 3.6 3.6 0 011.06-2.563 3.6 3.6 0 012.563-1.06 3.6 3.6 0 012.563 1.06 3.6 3.6 0 011.06 2.563 3.6 3.6 0 01-1.06 2.563 3.61 3.61 0 01-2.563 1.06zm0-6.476a2.854 2.854 0 00-2.852 2.853 2.854 2.854 0 002.852 2.852 2.854 2.854 0 002.852-2.852 2.862 2.862 0 00-2.852-2.853zm4.33-.889a.696.696 0 100-1.392.696.696 0 000 1.392z" fill="#0A2E27"/></svg>