<svg width="25" height="24" fill="none" xmlns="http://www.w3.org/2000/svg"><path d="M12.5 17.275l-4.15 2.5a.908.908 0 01-.575.15.966.966 0 01-.525-.2 1.2 1.2 0 01-.35-.437.875.875 0 01-.05-.588l1.1-4.725L4.275 10.8a.955.955 0 01-.312-.513A1.002 1.002 0 014 9.725c.066-.183.166-.333.3-.45.134-.117.317-.192.55-.225l4.85-.425 1.875-4.45c.083-.2.213-.35.388-.45.175-.1.354-.15.537-.15.183 0 .362.05.537.15.175.1.305.25.388.45l1.875 4.45 4.85.425c.233.033.417.108.55.225.133.117.233.267.3.45a1 1 0 01.038.563.949.949 0 01-.313.512l-3.675 3.175 1.1 4.725a.876.876 0 01-.05.588c-.083.175-.2.321-.35.437a.977.977 0 01-.525.2.9.9 0 01-.575-.15l-4.15-2.5z" fill="#0FB597"/></svg>